<svg xmlns="http://www.w3.org/2000/svg" version="1.1" xmlns:xlink="http://www.w3.org/1999/xlink" xmlns:svgjs="http://svgjs.com/svgjs" width="1800" height="920" preserveAspectRatio="none" viewBox="0 0 1800 920"><g mask="url(&quot;#SvgjsMask1015&quot;)" fill="none"><rect width="1800" height="920" x="0" y="0" fill="#0e2a47"></rect><path d="M 0,392 C 72,315.8 216,34.6 360,11 C 504,-12.6 576,240.6 720,274 C 864,307.4 936,176 1080,178 C 1224,180 1296,296.4 1440,284 C 1584,271.6 1728,149.6 1800,116L1800 920L0 920z" fill="#184a7e"></path><path d="M 0,739 C 120,709.4 360,578.2 600,591 C 840,603.8 960,826.2 1200,803 C 1440,779.8 1680,540.6 1800,475L1800 920L0 920z" fill="#2264ab"></path></g><defs><mask id="SvgjsMask1015"><rect width="1800" height="920" fill="#ffffff"></rect></mask></defs></svg>